Coordinates
version=1
nRows=26
nColumns=24
inDegrees=yes

Units are S.I. units (second, meters, Newtons, ...)
Angles are in degrees.

endheader
time	pelvis_tilt	pelvis_list	pelvis_rotation	pelvis_tx	pelvis_ty	pelvis_tz	hip_flexion_r	hip_adduction_r	hip_rotation_r	knee_angle_r	ankle_angle_r	subtalar_angle_r	mtp_angle_r	hip_flexion_l	hip_adduction_l	hip_rotation_l	knee_angle_l	ankle_angle_l	subtalar_angle_l	mtp_angle_l	lumbar_extension	lumbar_bending	lumbar_rotation
      3.13000000	     22.54062683	     -2.54203440	     -2.52088832	     -0.04809789	      0.97516868	     -0.01866516	     -2.01272602	     -0.52998084	    -17.04124371	    -22.31276428	      9.11533788	      2.57502822	      0.00000000	    -35.81948003	      3.57176616	    -16.68899660	      3.35888322	     11.34270071	     13.64801701	     13.03428022	    -33.33642219	      0.27060733	     -0.10810441
      3.13500000	     22.72996193	     -2.69327021	     -2.22053261	     -0.04191233	      0.97473012	     -0.01851571	     -2.43233563	     -0.12674691	    -17.73448806	    -19.97150362	      8.82103466	      3.36684896	      0.00000000	    -36.48375097	      3.28450014	    -16.76715748	      3.45142883	     11.58722696	     14.00735532	     12.93618641	    -33.51571395	      0.52868089	     -0.26325338
      3.14000000	     22.92484601	     -2.82297222	     -1.93166165	     -0.03571485	      0.97425392	     -0.01828984	     -2.86596456	      0.27365596	    -18.40451086	    -17.64072685	      8.53301704	      4.06060738	      0.00000000	    -37.14851886	      3.01791731	    -16.83659887	      3.53789381	     11.77849746	     14.24998814	     12.89473505	    -33.69681738	      0.75356737	     -0.43685154
      3.14500000	     23.09384508	     -2.93385652	     -1.66988372	     -0.02949083	      0.97368080	     -0.01798502	     -3.26886240	      0.66410523	    -19.04146053	    -15.34804817	      8.17130260	      4.94517219	      0.00000000	    -37.77924770	      2.77250246	    -16.91837854	      3.60949422	     11.98805724	     14.56463158	     12.87486053	    -33.84378916	      0.94484886	     -0.57211014
      3.15000000	     23.23381479	     -3.01408004	     -1.43158773	     -0.02326655	      0.97302896	     -0.01761312	     -3.63408502	      1.03273709	    -19.63642307	    -13.10989539	      7.80936802	      5.89184400	      0.00000000	    -38.36824754	      2.55843573	    -16.97313823	      3.66197027	     12.19386788	     14.84147335	     12.86773420	    -33.95761418	      1.09414598	     -0.69463158
      3.15500000	     23.32414845	     -3.05979533	     -1.22891401	     -0.01704245	      0.97225763	     -0.01717563	     -3.91745777	      1.35929059	    -20.20235891	    -10.98669471	      7.47771631	      7.10639507	      0.00000000	    -38.87814271	      2.38431489	    -17.03447172	      3.65970218	     12.46175608	     15.10850444	     12.86592160	    -34.01617486	      1.19462674	     -0.80576770
      3.16000000	     23.43654957	     -3.08483154	     -1.03660726	     -0.01085424	      0.97147556	     -0.01666998	     -4.23038973	      1.68178690	    -20.67386369	     -8.90987206	      7.12043156	      7.93768177	      0.00000000	    -39.43424635	      2.23282550	    -17.01106384	      3.71585626	     12.61425680	     15.27002694	     12.89344167	    -34.10179902	      1.26342825	     -0.92043258
      3.16500000	     23.52970548	     -3.10680401	     -0.88049152	     -0.00464087	      0.97064279	     -0.01608916	     -4.50748499	      1.99753847	    -21.09405781	     -6.94180157	      6.78741667	      8.80948512	      0.00000000	    -39.93988296	      2.10003155	    -17.06591615	      3.70299337	     12.77893546	     15.35025121	     12.94811948	    -34.16365316	      1.31216652	     -1.01791200
      3.17000000	     23.57089539	     -3.06976089	     -0.73731116	      0.00152323	      0.96970607	     -0.01548111	     -4.68180791	      2.23079270	    -21.52153860	     -5.15142778	      6.46000364	     10.03114700	      0.00000000	    -40.37784547	      2.01005508	    -17.02051872	      3.67510782	     12.99684939	     15.52286656	     13.07400255	    -34.17448414	      1.29804002	     -1.11410188
      3.17500000	     23.61347666	     -3.03525059	     -0.62176483	      0.00767130	      0.96877339	     -0.01480792	     -4.84912776	      2.46495783	    -21.85282740	     -3.46584002	      6.17555457	     11.01509544	      0.00000000	    -40.80289559	      1.93245432	    -16.99444814	      3.61858605	     13.16451541	     15.54183487	     13.22931693	    -34.18978629	      1.27152518	     -1.19058419
      3.18000000	     23.63856170	     -3.00268703	     -0.51827205	      0.01383747	      0.96780556	     -0.01411519	     -4.98975084	      2.69325354	    -22.11083666	     -1.89303907	      5.87889248	     11.84835445	      0.00000000	    -41.22186784	      1.85654564	    -16.93147731	      3.58800715	     13.29003364	     15.57450583	     13.38793224	    -34.18448078	      1.24426820	     -1.25083408
      3.18500000	     23.67957851	     -2.96647975	     -0.43800635	      0.01998450	      0.96685763	     -0.01338277	     -5.12974648	      2.90221476	    -22.30362923	     -0.45949757	      5.61470883	     12.63534869	      0.00000000	    -41.63136107	      1.79356072	    -16.91450386	      3.50047014	     13.40411795	     15.54522346	     13.54834552	    -34.20029435	      1.20350789	     -1.30058201
      3.19000000	     23.69930359	     -2.91917756	     -0.35499012	      0.02613925	      0.96589514	     -0.01265243	     -5.22370943	      3.08084716	    -22.49774101	      0.81497564	      5.35706909	     13.50622066	      0.00000000	    -42.00838624	      1.72893540	    -16.85088400	      3.39489188	     13.53336156	     15.54368959	     13.76491402	    -34.19132090	      1.15506480	     -1.34468830
      3.19500000	     23.70306976	     -2.85410611	     -0.28082627	      0.03227083	      0.96493041	     -0.01193674	     -5.25657438	      3.20961325	    -22.70007757	      1.87850010	      5.25563053	     14.52651006	      0.00000000	    -42.35050072	      1.67820238	    -16.75062394	      3.25855655	     13.64354707	     15.50231369	     14.21753378	    -34.16956549	      1.09104959	     -1.37877142
      3.20000000	     23.73232816	     -2.82331677	     -0.20460153	      0.03844028	      0.96402359	     -0.01120664	     -5.34344596	      3.37464097	    -22.77210655	      2.88018526	      4.99954440	     15.00455646	      0.00000000	    -42.71771033	      1.59488852	    -16.68877686	      3.11067792	     13.73589653	     15.45702949	     14.40812174	    -34.17223953	      1.06278633	     -1.40754616
      3.20500000	     23.73726839	     -2.78110278	     -0.10932350	      0.04463325	      0.96312307	     -0.01054101	     -5.35027239	      3.49148516	    -22.96480685	      3.63792771	      4.85179363	     15.90440711	      0.00000000	    -43.03276742	      1.49856353	    -16.59210102	      2.91052937	     13.85000843	     15.44385931	     14.85998827	    -34.14567676	      1.03996487	     -1.44374980
      3.21000000	     23.77726736	     -2.76189728	     -0.01599399	      0.05084090	      0.96228596	     -0.00988940	     -5.39928700	      3.61852974	    -23.07190194	      4.27818467	      4.70385483	     16.52547002	      0.00000000	    -43.38532002	      1.38412000	    -16.50845432	      2.70956608	     13.90848269	     15.40729216	     15.31717845	    -34.15819800	      1.04309147	     -1.46015043
      3.21500000	     23.76207304	     -2.74312882	      0.05576265	      0.05704347	      0.96143001	     -0.00921691	     -5.38021036	      3.72345671	    -23.00289441	      4.77062986	      4.74500699	     16.66082599	      0.00000000	    -43.65759225	      1.27316011	    -16.40826831	      2.46374396	     13.99893664	     15.36382869	     15.38038935	    -34.11337316	      1.04120775	     -1.46184301
      3.22000000	     23.86989839	     -2.77384037	      0.20524046	      0.06343379	      0.96076183	     -0.00870407	     -5.49271743	      3.86964755	    -23.24555662	      5.11836517	      4.48492127	     17.39105864	      0.00000000	    -44.08185107	      1.08013330	    -16.36855323	      2.24806664	     13.98945389	     15.40264164	     15.82408831	    -34.17709279	      1.13505198	     -1.49171211
      3.22500000	     23.89025638	     -2.76173783	      0.28954827	      0.06967096	      0.96001376	     -0.00811798	     -5.48192708	      3.93394666	    -23.17240942	      5.29375188	      4.51996493	     17.51455887	      0.00000000	    -44.35624318	      0.94655949	    -16.25329444	      1.92598352	     14.12816242	     15.35724211	     15.92985803	    -34.16784464	      1.15746933	     -1.47411259
      3.23000000	     23.99017021	     -2.80387483	      0.45762713	      0.07609696	      0.95942439	     -0.00769843	     -5.53016668	      4.03705339	    -23.43501360	      5.26674139	      4.37178488	     18.43405154	      0.00000000	    -44.72604663	      0.71718767	    -16.19546865	      1.62355345	     14.04199716	     15.39281363	     16.98736285	    -34.22261214	      1.28587614	     -1.49897528
      3.23500000	     24.04470113	     -2.82624189	      0.58845029	      0.08248050	      0.95881167	     -0.00722834	     -5.55450953	      4.10767183	    -23.39737787	      5.18298397	      4.35991365	     18.40988921	      0.00000000	    -45.01772993	      0.51901986	    -16.08583059	      1.25615897	     14.09868215	     15.34145922	     17.08755491	    -34.23419422	      1.37838276	     -1.49579450
      3.24000000	     24.14209675	     -2.87051167	      0.75188239	      0.08891732	      0.95828416	     -0.00685360	     -5.61218980	      4.18244800	    -23.41367374	      4.95110037	      4.28580154	     18.38733061	      0.00000000	    -45.34924810	      0.28119958	    -15.98336662	      0.87768581	     14.13388863	     15.33396312	     17.25313411	    -34.28725429	      1.51974070	     -1.51050081
      3.24500000	     24.23310078	     -2.93262113	      0.94715293	      0.09549905	      0.95779346	     -0.00651284	     -5.67417806	      4.27082934	    -23.48916219	      4.63259928	      4.11100714	     18.58423476	      0.00000000	    -45.68939214	      0.00350859	    -15.85892916	      0.54937652	     13.76744513	     15.25777946	     19.68174629	    -34.31621850	      1.69598008	     -1.56108055
      3.25000000	     24.32564125	     -3.00359571	      1.12998939	      0.10207256	      0.95733326	     -0.00617642	     -5.74580973	      4.35715661	    -23.42831944	      4.23989866	      3.95229109	     18.43074105	      0.00000000	    -45.99491195	     -0.27962151	    -15.73931378	      0.12247197	     13.77060805	     15.23347393	     19.78859408	    -34.34901385	      1.88140082	     -1.57735985
      3.25500000	     24.42986110	     -3.06497953	      1.28039225	      0.10865499	      0.95691976	     -0.00578239	     -5.85437083	      4.43002535	    -23.19404220	      3.82486742	      3.61514745	     17.95260549	      0.00000000	    -46.29395358	     -0.54071053	    -15.64985889	     -0.33737062	     13.63708934	     15.25529757	     20.53845671	    -34.39506568	      2.04090686	     -1.54833427
